<svg id="Layer_1" data-name="Layer 1" xmlns="http://www.w3.org/2000/svg" viewBox="0 0 32 32"><defs><style>.cls-1{fill:#3e66b1;}.cls-2{fill:#fff;}.cls-3{fill:#f58120;}</style></defs><title>favicon</title><rect class="cls-1" x="0.01" width="32" height="32"/><path class="cls-2" d="M.45,14.85c.2-.29.37-.6.59-.86a9.67,9.67,0,0,1,2.82-2.27c1.79-1,3.62-1.92,5.43-2.87a.41.41,0,0,0,.26-.42c0-1.28.1-2.57.17-3.85A3,3,0,0,1,11.18,2.1,10.39,10.39,0,0,1,19.51.75,1.88,1.88,0,0,1,20.93,2c.31.85.66,1.68,1,2.55.55-.14,1.11-.29,1.68-.41,2-.43,3.95-.87,5.93-1.27a1.25,1.25,0,0,1,1.48.7c.12.21.2.44.33.71l-.53,0A16.4,16.4,0,0,0,27,4.53,79,79,0,0,0,10,9.67,47.21,47.21,0,0,0,1,14.6l-.45.33ZM11.33,8.08,19.5,5.29A65.54,65.54,0,0,0,11.33,8.08Z"/><path class="cls-2" d="M13.79,19.5c1.87,1.79,4.82.82,5.09-.41a8.93,8.93,0,0,1-.89-.23,3.74,3.74,0,0,1-.72-.29.77.77,0,0,0-.88,0,.38.38,0,0,1-.33,0,.81.81,0,0,0-.8,0A10.2,10.2,0,0,1,14,18.9c-.19.05-.27,0-.26-.25,0-.95.07-1.9.12-2.85a.43.43,0,0,1,.2-.29,3,3,0,0,0,1.61-2.34c0-.32.18-.47.5-.46a.89.89,0,0,0,.23,0c.29,0,.42.07.48.38a3.58,3.58,0,0,0,2.18,2.8,3.3,3.3,0,0,0,3.4-.24c-.07.42-.11.74-.19,1.06a10.22,10.22,0,0,1-1.68,3.87,10.06,10.06,0,0,1-3.52,2.72,1.66,1.66,0,0,1-1.59,0c-.55-.29-1.08-.6-1.61-.92a.36.36,0,0,1-.18-.26c0-.86,0-1.71,0-2.56ZM15.56,16l-.07-.05c-.14.2-.29.4-.42.61a.43.43,0,0,0,.1.61,3.21,3.21,0,0,0,.7.39,1.07,1.07,0,0,0,.4,0,1.28,1.28,0,0,0-.55-.36c-.43-.05-.61-.3-.43-.7C15.37,16.33,15.47,16.16,15.56,16Z"/><path class="cls-2" d="M22.39,10.62a12.51,12.51,0,0,0-1.68-.34,3.27,3.27,0,0,0-2.3.72,14.06,14.06,0,0,1-1.22.85A1.77,1.77,0,0,1,15,11.61a.45.45,0,0,1,0-.64,5.16,5.16,0,0,1,4.75-2.33,4.73,4.73,0,0,1,2.58,1.13C22.43,9.9,22.36,10.34,22.39,10.62Z"/><path class="cls-3" d="M18.84,19a6.11,6.11,0,0,0-.7-.13,4.66,4.66,0,0,1-.75-.29c-.28-.12-.38-.23-.55-.23s-.21.05-.51.15a.31.31,0,0,1-.32-.07l-.16-.09c-.12-.05-.21,0-.5.09a2.34,2.34,0,0,1-.28.11l-.45.15a6.46,6.46,0,0,0-.71.19c-.17.07-.28.12-.3.22s.09.24.25.42a2.44,2.44,0,0,0,.42.37,3.3,3.3,0,0,0,1.68.6,3.1,3.1,0,0,0,.6,0,3.52,3.52,0,0,0,.68-.11,3.17,3.17,0,0,0,.66-.27,2,2,0,0,0,.54-.36,1.29,1.29,0,0,0,.41-.63s0-.05,0-.08S18.84,19,18.84,19Z"/><path class="cls-2" d="M11.07,11.6a10,10,0,0,0-1.52,5.15,10.11,10.11,0,0,0,1.27,5.08,12.27,12.27,0,0,1,1.26,2.57,7.44,7.44,0,0,1,.51,2.88,4.74,4.74,0,0,1-.36,1.46,2.33,2.33,0,0,1-1,1.18A1.58,1.58,0,0,1,9.7,29.8a2.55,2.55,0,0,1-1-1.05,2.93,2.93,0,0,0,1.08.82A1.22,1.22,0,0,0,11,29.49a2.88,2.88,0,0,0,.84-2.24,7.44,7.44,0,0,0-.62-2.53A12.6,12.6,0,0,0,10,22.33a9.71,9.71,0,0,1-1.19-5.62A8.41,8.41,0,0,1,11.07,11.6Z"/><path class="cls-2" d="M10.56,12.14A9.29,9.29,0,0,0,8,16.85a10.28,10.28,0,0,0,.27,5.31,13.7,13.7,0,0,1,.71,2.75,7.77,7.77,0,0,1,0,2.88,4.85,4.85,0,0,1-.63,1.34A2,2,0,0,1,7,30a1.56,1.56,0,0,1-1.39-.48,2.78,2.78,0,0,1-.72-1.21,3.07,3.07,0,0,0,.85,1.06A1.3,1.3,0,0,0,7,29.68c.76-.25,1.17-1.23,1.36-2A7.92,7.92,0,0,0,8.22,25a12.19,12.19,0,0,0-.72-2.62,9.87,9.87,0,0,1-.11-5.67,9.38,9.38,0,0,1,1.19-2.59A8.32,8.32,0,0,1,10.56,12.14Z"/><path class="cls-2" d="M9.75,13.11A9.23,9.23,0,0,0,8.29,18.3a10.43,10.43,0,0,0,1.48,5.1,12.78,12.78,0,0,1,1.33,2.51,7.82,7.82,0,0,1,.61,2.82,4.62,4.62,0,0,1-.3,1.44,2,2,0,0,1-1,1.17A1.59,1.59,0,0,1,9,31.2a2.9,2.9,0,0,1-1-1A3,3,0,0,0,9.07,31a1.29,1.29,0,0,0,1.21,0,2.7,2.7,0,0,0,.86-2.28,8.36,8.36,0,0,0-.7-2.56,12.94,12.94,0,0,0-1.31-2.38,9.86,9.86,0,0,1-1.41-5.5,9.17,9.17,0,0,1,.56-2.79A8.15,8.15,0,0,1,9.75,13.11Z"/><path class="cls-2" d="M25.93,18.14a3.41,3.41,0,0,0-1.37,2.49,6.12,6.12,0,0,0,.72,2.78c.22.47.44.95.62,1.44a4.76,4.76,0,0,1,.38,1.6,3.8,3.8,0,0,1-1.46,2.79,4.53,4.53,0,0,0,.88-2.77,11.61,11.61,0,0,0-1.09-2.73A5.39,5.39,0,0,1,24,20.58,3.24,3.24,0,0,1,25.93,18.14Z"/><path class="cls-2" d="M24.26,18.6a3.46,3.46,0,0,0-1.37,2.49,6.12,6.12,0,0,0,.72,2.78c.22.48.44.95.62,1.44a4.76,4.76,0,0,1,.39,1.6,3.85,3.85,0,0,1-1.46,2.79A4.52,4.52,0,0,0,24,26.93,11.14,11.14,0,0,0,23,24.2,5.31,5.31,0,0,1,22.3,21,3.23,3.23,0,0,1,24.26,18.6Z"/></svg>